<svg xmlns="http://www.w3.org/2000/svg" viewBox="0 0 64 64" fill="#000"><path d="M32 0C15.001 0 1.124 13.193.028 29.874l17.19 7.108a8.14 8.14 0 0 1 3.748-.662l7.83-11.375-.003-.158c0-6.714 5.453-12.174 12.155-12.174 6.715.014 12.155 5.474 12.155 12.174s-5.45 12.18-12.155 12.18l-.275-.005-11.192 8.005a8.89 8.89 0 0 1-.684 3.656 8.88 8.88 0 0 1-11.603 4.782c-2.762-1.15-4.642-3.542-5.242-6.27l-12.156-5.016C2.7 48.72 7.834 55.727 14.81 60.414 19.952 62.72 25.81 64 32 64c17.673 0 32-14.327 32-32S49.673 0 32 0zM28.43 47.035c-1.454 3.5-5.466 5.147-8.953 3.694a6.84 6.84 0 0 1-3.524-3.362l3.957 1.64a5.04 5.04 0 0 0 6.591-2.719 5.05 5.05 0 0 0-2.715-6.601l-4.1-1.695c1.578-.6 3.372-.62 5.05.077 1.7.703 3 2.027 3.696 3.72s.692 3.56-.01 5.246M42.466 32.1a8.12 8.12 0 0 1-8.098-8.113 8.12 8.12 0 0 1 8.098-8.111 8.12 8.12 0 0 1 8.1 8.111 8.12 8.12 0 0 1-8.1 8.113m-6.068-8.126a6.09 6.09 0 0 1 6.08-6.095c3.355 0 6.084 2.73 6.084 6.095a6.09 6.09 0 0 1-6.084 6.093 6.09 6.09 0 0 1-6.081-6.093z"/></svg>