<?xml version="1.0" encoding="utf-8"?>
<!-- Generator: Adobe Illustrator 24.2.1, SVG Export Plug-In . SVG Version: 6.00 Build 0)  -->
<svg version="1.1" id="Layer_1" xmlns="http://www.w3.org/2000/svg" xmlns:xlink="http://www.w3.org/1999/xlink" x="0px" y="0px"
	 viewBox="0 0 633.2 828.1" style="enable-background:new 0 0 633.2 828.1;" xml:space="preserve">
<style type="text/css">
	.st0{fill:#FFFFFF;}
</style>
<path class="st0" d="M455.9,178.4c21.4-21.9,53.9-54.4,72.2-72.7c1.5-1.5,2.4-3.6,2.4-5.8l0.3-29.4c0-2.7-2.2-5-5-5
	c-1.3,0-2.6,0.5-3.5,1.5L410.5,180.6c-28.3,28.6-50,72.3-51.8,109.9s3.2,85.7,15.2,82.9c14.1-3.4,32.3-26,44.9-8.4
	c5.3,7.5,4.2,16.1-5.3,23c-7.4,5.4-23,9.8-31.1,12.1l-14.2,2.5c-7.1,0-13.3-4-22.2-13.5c-8.9-9.5-9.4-19.4-9.4-32
	c0.1-12.5-2.2-17.5-2.2-17.5c10.6,0,12.4-8.8,12.4-8.8h-46.6c-8.7,0-16.9,6.3-16.9,14.6v11.3l7.1,0.3c5.2,0.2,7.6,5.1,6.5,10.1
	c-2.1,10.4-7.5,19.8-15.5,26.7c-6.2,5.6-13.3,11-30,6.2c-8-2.3-23.7-6.8-31.1-12.1c-9.5-6.9-10.6-15.5-5.3-23
	c12.6-17.6,30.8,5,44.9,8.4c12.1,2.9,17-45.3,15.3-82.9c-1.8-37.6-23.5-81.3-51.8-109.8L111.6,67c-1.9-1.9-5.1-1.9-7,0
	c-0.9,0.9-1.5,2.2-1.5,3.5l0.2,29.4c0,2.2,0.9,4.3,2.4,5.8c18.3,18.3,50.7,50.8,72.2,72.7c31.3,32,60,54,67.2,106.2
	s-11.2,52.8-11.2,52.8s6.9-19.1,4.1-38.8c-2.8-19.7-10.1-55.1-36.7-81.5c-20.2-20-68.3-68.5-91.8-92.2c-1.4-1.4-3.6-1.3-5,0.1
	c-0.6,0.7-1,1.5-1,2.4l0.2,27.6c0,4.9,2,7.5,5.4,11c11.4,11.4,23.3,23.5,32.6,33c25.8,26.4,59.3,54.4,66.5,97.7
	c5,29.6-8.4,33.6-8.4,33.6s1-20-1.2-36.2c-2.3-16.3-16.8-40.1-38.7-61.8c-10.7-10.7-31.1-31.1-49.5-49.5c-1.4-1.5-3.8-1.6-5.3-0.2
	c-0.8,0.8-1.3,1.8-1.2,3l0.2,26.6c0,3.4,1.3,6.6,3.6,9.2l38.3,41.7c16.1,17.2,24.3,28.7,24.3,52c0,0-2.6,28.4-4,45.2
	c-2,26.1,17.4,41.4,31.5,48.5l72.4,34.6c3.5,1.7,5.9,5,6.4,8.8c1,6.9,1.5,13.8,1.5,20.8v17.6H270c-7.7,0-11.2,3.7-12,12l-1.5,17.5
	c-34,18.5-57.9,51.1-65.4,89.1c5,2,10.1,3.9,15.5,5.7c9.5,3.2,19.5,6.3,29.9,8.9v-0.7c0.7-9,8.2-16,17.3-16h164.6
	c4,0,7.5,2.9,8.2,6.8l0.2,1c5.3-1.8,10.5-3.7,15.5-5.7c-7.4-37.7-31.1-70.3-64.9-88.8l-1.6-17.8c-0.9-8.3-4.3-12-12-12h-8.1V473
	c-0.1-7,0.4-13.9,1.5-20.8c0.6-3.8,3-7.1,6.5-8.8l72.3-34.6c14-7.2,33.4-22.5,31.4-48.5c-1.3-16.8-3.9-45.2-3.9-45.2
	c0-23.3,8.2-34.8,24.3-52.1l38.2-41.7c2.3-2.5,3.6-5.8,3.6-9.2l0.2-26.6c0-2.1-1.7-3.8-3.7-3.8c-1,0-2,0.4-2.7,1.1
	c-18.3,18.4-38.7,38.9-49.5,49.5c-21.9,21.8-36.5,45.5-38.7,61.8c-2.3,16.3-1.3,36.3-1.3,36.3s-13.4-4-8.4-33.6
	c7.2-43.4,40.7-71.3,66.5-97.7c9.3-9.6,21.3-21.6,32.6-33c3.4-3.4,5.3-6.1,5.4-11l0.2-27.6c0-1.9-1.6-3.5-3.5-3.5
	c-0.9,0-1.8,0.3-2.4,1c-23.5,23.7-71.6,72.2-91.8,92.1c-26.6,26.4-33.9,61.8-36.7,81.5c-2.8,19.7,4.1,38.8,4.1,38.8
	s-18.4-0.6-11.2-52.8C396,232.4,424.7,210.4,455.9,178.4z M325.6,391.4c0.1-0.2,0.3-0.4,0.6-0.4c0.2,0,0.4,0.2,0.5,0.4
	c5.6,20.5,19.1,26.6,25,28.4c0.7,0.2,1.1,0.9,0.9,1.6c-0.1,0.3-0.3,0.5-0.5,0.7c-2.3,1.5-10.4,7-17.7,12c-3.7,2.5-8.7-0.1-8.7-4.6
	L325.6,391.4L325.6,391.4z M325.6,459.9c0-1.1,0.9-2,2-2h4.5c5.3,0,9.7,4.7,9.7,10.4c0,5.8-4.4,10.4-9.7,10.4h-4.5
	c-1.1,0-2-0.9-2-1.9V459.9z M300,341.6c0.4-2.9,2.8-2,7.9-2c2.6,0,5.1,0,7.9,0c-0.3,0.4-4.9,6.4-10.1,6.4
	C300.3,346,299.9,342.3,300,341.6z M405.7,566L405.7,566c6.7,8.9,12.1,18.7,15.9,29.2c0.6,1.8-0.3,3.7-2,4.3
	c-0.4,0.1-0.8,0.2-1.1,0.2H251.8c-5,0-9.1-4.1-9.1-9.1c0-0.9,0.2-1.8,0.4-2.7c2-6.6,4.6-13,7.7-19.3c1.8-3.6,5.4-5.9,9.4-5.9h139.2
	C401.8,562.9,404.2,564,405.7,566z M389.2,548.4L389.2,548.4c1.7,1.4,1.9,4,0.5,5.8c-0.8,0.9-1.9,1.4-3.1,1.4H270.7
	c-3.3,0-6-2.7-6-6c0-1.5,0.5-2.9,1.5-4c9.3-10.6,20.4-18.2,32.6-21.8c4-1.2,8.1-2,12.2-2.3h0.1c1.2-0.1,2.4-0.1,3.6-0.1h2
	C343.3,521.3,369.1,530.9,389.2,548.4z"/>
<path class="st0" d="M416.9,715.4c-24.6,32.5-62.4,48.7-100.2,48.7s-75.6-16.3-100.2-48.7c32.2,10.5,66.2,15.8,100.2,15.8
	S384.7,725.9,416.9,715.4z"/>
<path class="st0" d="M122.6,261.3h-0.9c-11.1-0.2-20.3,8.6-20.5,19.7c-0.3,11.1,8.6,20.3,19.6,20.5c0.3,0,0.6,0,0.9,0
	c11.1,0.3,20.3-8.5,20.5-19.6C142.5,270.8,133.7,261.6,122.6,261.3z M121.7,289.2c-4.3-0.1-7.7-3.6-7.7-7.9c0.1-4.3,3.6-7.8,7.9-7.7
	c4.3,0.1,7.7,3.6,7.7,7.8C129.6,285.8,126,289.3,121.7,289.2z"/>
<path class="st0" d="M153.4,328c-0.1,5.1-4.3,9.3-9.4,9.2l0,0h-29.6c-25.2,0-27-23.8-26.8-32.7c0-0.7,0.6-1.3,1.4-1.3
	c0.4,0,0.7,0.2,0.9,0.4c3.7,4,12.1,11.5,21.8,11.5H144c5.1-0.1,9.3,4,9.4,9.2l0,0V328z"/>
<path class="st0" d="M166.7,394.8c1.9,4.5-0.3,9.7-4.8,11.5c-0.1,0-0.1,0.1-0.2,0.1l-21.4,8.6c-13,5.2-41.8,5.4-44,1
	c-1.6-3.3,18-15.8,23-17.8l26.5-12C153.9,382.9,163.2,386.7,166.7,394.8z"/>
<path class="st0" d="M150.9,363.1c0,5.1-4.2,9.2-9.3,9.2l0,0H111c-26.3,0-28.8-27.6-28.4-35.5c0-0.4,0.3-0.6,0.7-0.6
	c0.2,0,0.4,0.1,0.5,0.3c2.6,4.1,9.7,13.9,20.1,13.9h37.7c5.1-0.1,9.3,4,9.4,9.2l0,0L150.9,363.1z"/>
<path class="st0" d="M180,411.4l9.8,5.3c3.1,1.7,4.3,5.6,2.6,8.8c-0.5,1-1.4,1.9-2.3,2.4l-30,18.4c-4.6,2.8-9.6,1.3-6.1-6.3
	c2.6-5.7,13.9-20.1,19.1-27.2C174.6,410.7,177.6,410.1,180,411.4z"/>
<path class="st0" d="M539.5,550.6l2.7-1c9.7-3.4,13.5-12,9.7-21.8l-17.3-41.7c0.2,0.7,2.6,8.4-7.3,13.5
	c-9.3,4.8-41.4,22.7-48.1,26.4c-0.4,0.3-0.6,0.8-0.4,1.2c0.1,0.1,0.2,0.2,0.3,0.3c8.3,5.8,18.4,8.6,28.6,7.9
	c10.5-0.8,16.1-0.9,18.9-0.9c1.5,0,2.7,1.2,2.7,2.8v0.1c-0.9,16.3-27.6,18.2-27.6,18.2c-49.4,0.8-58.7,10.3-58.7,10.3l7.6,18.7
	c0,0,14.4-0.5,23,1.1c8.6,1.7,9.8,4.3,10.5,6.4c4.7,13.1-85.1,50.5-167.5,50.5S144.3,605.2,149,592.1c0.8-2.1,2-4.7,10.6-6.4
	s23-1.1,23-1.1l7.6-18.7c0,0-9.3-9.6-58.7-10.4c0,0-26.7-1.8-27.6-18.1c-0.1-1.5,1.1-2.8,2.6-2.9c0.1,0,0.1,0,0.2,0
	c2.8,0,8.4,0.2,18.9,0.9c10.1,0.7,20.2-2.1,28.6-7.9c0.4-0.3,0.5-0.8,0.2-1.2c-0.1-0.1-0.2-0.2-0.3-0.3
	c-6.7-3.7-38.9-21.7-48.1-26.4c-9.4-4.9-7.7-12.1-7.3-13.4l-17.3,41.6c-3.8,9.8,0.1,18.4,9.7,21.8l2.7,1l-10.9,38
	c-1.9,6.5-0.5,10.8,5.4,14l14.8,7.8c9.3,4.9,20.2,5.5,30,1.8l1.4-0.5l-6.3,44.3c-0.7,4.4,1.4,8.8,5.2,11.3
	c21.3,13.2,95.3,53.4,183.3,53.4s162.1-40.2,183.4-53.4c3.8-2.4,5.8-6.8,5.2-11.3l-6.3-44.3l1.3,0.5c9.8,3.7,20.7,3,30.1-1.8
	l15.3-7.9c5.9-3.2,6.9-6.8,5-13.3L539.5,550.6z M233.5,686.2c-0.1,2.4-3.2,2.9-9.3,1.2c-10.5-2.9-20.9-6.3-31.1-10.3
	c-5.9-2.2-8.7-4.7-8.5-7c0.9-11.8,1.8-23.6,2.7-35.5c4,1.7,8.1,3.2,12.1,4.8c-0.7,10.1-1.4,20.3-2.1,30.4c7.8,2.9,15.7,5.5,23.7,7.8
	c0.6-10.2,1.1-20.4,1.7-30.6c4.1,1.2,8.3,2.3,12.5,3.4C234.7,662.3,234.1,674.3,233.5,686.2z M305.3,699.8
	c-4.2-0.1-8.5-0.4-12.7-0.7c-7.6-8.8-15.1-17.9-22.4-27.3c0.6,1.3,0.9,2.3,0.8,3c-0.2,7.3-0.4,14.7-0.6,22c-4.7-0.6-9.3-1.4-14-2.2
	c0.5-13.2,0.9-26.3,1.4-39.5c4.1,0.7,8.2,1.4,12.3,1.9c7.3,9.2,14.7,18.1,22.2,26.8c-0.6-1.3-0.9-2.3-0.9-2.9
	c0.1-7.2,0.2-14.4,0.3-21.6c4.6,0.4,9.2,0.6,13.8,0.8C305.4,673.4,305.3,686.6,305.3,699.8z M368.8,696.1
	c-9.8,1.5-19.6,2.5-29.4,3.2c-5.9,0.4-8.9-0.8-8.9-3.1c0-3.1-0.1-6.3-0.1-9.4c4.9-0.2,9.7-0.5,14.6-0.9c0,1.4,0,4.2,0,5.6
	c5.9-0.5,11.9-1.1,17.8-1.9c0-1.4,0-4,0-5.3c-9.8-2.4-19.6-5.3-29.3-8.6c-2.1-0.7-3.2-1.7-3.2-3c0-2.9,0-5.9-0.1-8.8
	c0-2.4,2.9-3.7,8.6-4.1c9.6-0.6,19.2-1.7,28.8-3.1c5.8-0.9,8.7-0.2,8.7,2.2c0.1,2.9,0.2,5.9,0.3,8.8c-4.8,0.9-9.5,1.6-14.3,2.2
	c0-1.2-0.1-2.5-0.1-3.7c-5.9,0.8-11.7,1.4-17.6,1.9c0,1.1,0,2.3,0.1,3.4c9.7,3,19.4,5.5,29.2,7.6c2.1,0.5,3.2,1.3,3.2,2.7
	c0.1,3.1,0.2,6.3,0.3,9.4C377.6,693.5,374.6,695.2,368.8,696.1z M440.8,677.1c-10,3.8-20.1,7.2-30.3,10c-5.8,1.6-8.8,1.1-8.9-1.3
	c-0.5-10.7-1-21.4-1.6-32.2c-0.1-2.4,2.7-4.3,8.4-5.9c10-2.8,19.9-6.1,29.6-9.8c5.7-2.2,8.6-2.2,8.8,0.2c0.3,3.7,0.6,7.3,0.9,11
	c-4.7,1.9-9.3,3.8-14.1,5.5c-0.1-2-0.3-3.9-0.4-5.9c-6.8,2.5-13.6,4.7-20.5,6.7c0.4,7.3,0.8,14.5,1.2,21.8c7-2,13.9-4.3,20.8-6.8
	c-0.1-2.1-0.3-4.3-0.4-6.4c4.7-1.7,9.4-3.6,14.1-5.5c0.3,3.8,0.6,7.7,0.9,11.5C449.5,672.4,446.7,674.9,440.8,677.1z"/>
<path class="st0" d="M211.2,430.6l14.2,6.5c2.5,1.1,3.7,4.1,2.6,6.6c-0.2,0.6-0.6,1.1-1,1.5l-14.8,15c-1.6,1.6-4.3,1.7-5.9,0
	c-0.8-0.8-1.2-1.8-1.2-2.9l-0.1-22.9c0-2.4,2.1-4.4,4.5-4.4C210,430.2,210.6,430.4,211.2,430.6z"/>
<path class="st0" d="M243.7,446.2l12.9,4.5c3.3,1.1,5.1,4.6,4,7.9c-0.5,1.5-1.5,2.7-2.8,3.5l-11.9,7c-2.1,1.3-4.9,0.6-6.1-1.5
	c-0.4-0.7-0.6-1.5-0.6-2.4l0.6-16.3c0.1-1.6,1.6-2.9,3.2-2.7C243.2,446.1,243.4,446.1,243.7,446.2z"/>
<path class="st0" d="M512.2,261.3L512.2,261.3c-11.1,0.3-19.9,9.5-19.7,20.5c0.3,11.1,9.4,19.9,20.5,19.6
	c10.9-0.2,19.6-9.2,19.7-20.1C532.6,270.2,523.4,261.2,512.2,261.3z M512.2,289.2c-4.3-0.1-7.7-3.6-7.7-7.9c0.1-4.3,3.6-7.8,7.9-7.7
	c4.3,0.1,7.7,3.6,7.7,7.8C520.1,285.8,516.5,289.3,512.2,289.2z"/>
<path class="st0" d="M480.5,328c0.1,5.1,4.3,9.3,9.4,9.2h29.6c25.2,0,27-23.8,26.8-32.7c0-0.7-0.6-1.3-1.4-1.3
	c-0.3,0-0.7,0.2-0.9,0.4c-3.7,4-12.1,11.5-21.8,11.5h-32.3c-5.1-0.1-9.3,4.1-9.4,9.2l0,0L480.5,328L480.5,328z"/>
<path class="st0" d="M469.1,394.8c-1.9,4.5,0.3,9.7,4.8,11.5c0.1,0,0.1,0.1,0.2,0.1l21.4,8.6c13,5.2,41.8,5.4,44,1
	c1.6-3.3-18-15.8-23-17.8l-26.5-12C481.9,383,472.6,386.8,469.1,394.8z"/>
<path class="st0" d="M483,363.1c0,5.1,4.2,9.2,9.3,9.2l0,0h30.6c26.4,0,28.8-27.6,28.5-35.5c0-0.4-0.3-0.6-0.7-0.6
	c-0.2,0-0.4,0.1-0.5,0.3c-2.6,4.1-9.7,13.9-20.1,13.9h-37.7c-5.1-0.1-9.3,4-9.4,9.2l0,0L483,363.1z"/>
<path class="st0" d="M453.8,411.4l-9.8,5.3c-3.1,1.7-4.3,5.6-2.6,8.7c0.5,1,1.4,1.9,2.3,2.5l30,18.4c4.6,2.8,9.6,1.3,6.2-6.3
	c-2.6-5.7-13.9-20.1-19.1-27.2C459.2,410.7,456.2,410.1,453.8,411.4z"/>
<path class="st0" d="M422.6,430.6l-14.2,6.5c-2.5,1.1-3.7,4.1-2.5,6.7c0.2,0.5,0.6,1,1,1.5l14.8,15c1.6,1.6,4.3,1.7,5.9,0
	c0.8-0.8,1.2-1.8,1.2-2.9l0.1-22.9c0-2.4-2.1-4.4-4.5-4.4C423.8,430.2,423.2,430.4,422.6,430.6z"/>
<path class="st0" d="M390.1,446.2l-12.9,4.5c-3.3,1.1-5.1,4.6-4,7.9c0.5,1.5,1.5,2.7,2.8,3.5l11.9,7c2.1,1.3,4.8,0.6,6.1-1.5
	c0.4-0.7,0.7-1.6,0.6-2.4l-0.6-16.3c-0.1-1.6-1.6-2.9-3.2-2.7C390.6,446.1,390.4,446.1,390.1,446.2z"/>
</svg>
